<svg width="33" height="33" viewBox="0 0 33 33" fill="none" xmlns="http://www.w3.org/2000/svg">
<circle cx="16.5" cy="16.5" r="16.5" fill="black"/>
<g clip-path="url(#clip0_33_1017)">
<path d="M26 18.355C26 17.613 25.436 17.009 24.74 17.009H14.676C13.98 17.009 13.416 17.613 13.416 18.355C13.416 19.097 13.979 19.701 14.676 19.701H24.74C25.436 19.702 26 19.098 26 18.355Z" fill="#B3B1B0"/>
<path d="M7.482 22.187L11.795 26.548C12.768 27.527 14.113 28 15.598 28C17.083 28 18.428 27.488 19.403 26.506L21.991 23.869C22.501 23.355 22.483 22.504 21.952 21.969C21.421 21.434 20.577 21.416 20.068 21.93L17.392 24.537C16.93 25.004 16.29 25.199 15.583 25.199C14.876 25.199 14.237 25.004 13.773 24.537L9.475 20.174C9.012 19.707 8.779 19.024 8.779 18.311C8.779 17.598 9.012 16.954 9.475 16.487L13.76 12.107C14.223 11.64 14.876 11.462 15.582 11.462C16.288 11.462 16.928 11.657 17.391 12.124L20.067 14.73C20.577 15.245 21.421 15.227 21.952 14.692C22.483 14.156 22.501 13.305 21.991 12.791L19.403 10.155C18.7451 9.49757 17.9166 9.03694 17.011 8.825L16.977 8.818L19 6C19.512 5.486 19.531 5.535 19 5C18.469 4.465 18.011 4.486 17.5 5L7.482 14.476C6.509 15.458 6 16.813 6 18.311C6 19.809 6.509 21.207 7.482 22.187Z" fill="#E7A41F"/>
<path d="M11.729 26.46C11.8691 26.6021 12.0287 26.7237 12.203 26.821C12.369 26.914 12.533 26.994 12.732 27C13.325 27.022 13.744 26.737 14.065 26.272C14.356 25.851 14.35 24.904 13.882 24.601C13.814 24.535 13.745 24.47 13.678 24.403C12.356 23.079 11.025 21.765 9.717 20.429C8.51428 19.2708 8.48171 17.4953 9.649 16.302L14.287 11.725L17.113 8.82C17.883 8.045 18.5691 7.23872 19.3381 6.46272C19.9431 5.85172 20.06 5.063 19.5 4.5C18.919 3.915 18.125 3.874 17.5 4.5L7.798 14.139C7.48257 14.4421 7.24223 14.6357 7 15C5.43358 17.3947 5.67044 20.4749 7.745 22.463C9.069 23.8 10.402 25.127 11.729 26.46Z" fill="#D9D9D9"/>
</g>
<defs>
<clipPath id="clip0_33_1017">
<rect width="24" height="24" fill="white" transform="translate(4 4)"/>
</clipPath>
</defs>
</svg>
