<svg width="30" height="30" viewBox="0 0 30 30" fill="none" xmlns="http://www.w3.org/2000/svg">
<rect width="30" height="30" fill="black"/>
<path d="M25 17.355C25 16.613 24.436 16.009 23.74 16.009H13.676C12.98 16.009 12.416 16.613 12.416 17.355C12.416 18.097 12.979 18.701 13.676 18.701H23.74C24.436 18.702 25 18.098 25 17.355Z" fill="#B3B1B0"/>
<path d="M6.482 21.187L10.795 25.548C11.768 26.527 13.113 27 14.598 27C16.083 27 17.428 26.488 18.403 25.506L20.991 22.869C21.501 22.355 21.483 21.504 20.952 20.969C20.421 20.434 19.577 20.416 19.068 20.93L16.392 23.537C15.93 24.004 15.29 24.199 14.583 24.199C13.876 24.199 13.237 24.004 12.773 23.537L8.475 19.174C8.012 18.707 7.779 18.024 7.779 17.311C7.779 16.598 8.012 15.954 8.475 15.487L12.76 11.107C13.223 10.64 13.876 10.462 14.582 10.462C15.288 10.462 15.928 10.657 16.391 11.124L19.067 13.73C19.577 14.245 20.421 14.227 20.952 13.692C21.483 13.156 21.501 12.305 20.991 11.791L18.403 9.155C17.7451 8.49757 16.9166 8.03694 16.011 7.825L15.977 7.818L18 5C18.512 4.486 18.531 4.535 18 4C17.469 3.465 17.011 3.486 16.5 4L6.482 13.476C5.509 14.458 5 15.813 5 17.311C5 18.809 5.509 20.207 6.482 21.187Z" fill="#E7A41F"/>
<path d="M10.729 25.46C10.8691 25.6021 11.0287 25.7237 11.203 25.821C11.369 25.914 11.533 25.994 11.732 26C12.325 26.022 12.744 25.737 13.065 25.272C13.356 24.851 13.35 23.904 12.882 23.601C12.814 23.535 12.745 23.47 12.678 23.403C11.356 22.079 10.025 20.765 8.717 19.429C7.51428 18.2708 7.48171 16.4953 8.649 15.302L13.287 10.725L16.113 7.82C16.883 7.045 17.5691 6.23872 18.3381 5.46272C18.9431 4.85172 19.06 4.063 18.5 3.5C17.919 2.915 17.125 2.874 16.5 3.5L6.798 13.139C6.48257 13.4421 6.24223 13.6357 6 14C4.43358 16.3947 4.67044 19.4749 6.745 21.463C8.069 22.8 9.402 24.127 10.729 25.46Z" fill="#D9D9D9"/>
</svg>
